<svg width="200" height="60" viewBox="0 0 200 60" fill="none" xmlns="http://www.w3.org/2000/svg">
  <rect width="200" height="60" rx="8" fill="#6B5CFF" opacity="0.1" />
  <g transform="translate(10, 10)">
    <path d="M21 15.5996C19.7 15.5996 18.6 14.4996 18.6 13.1996C18.6 11.8996 19.7 10.7996 21 10.7996C22.3 10.7996 23.4 11.8996 23.4 13.1996C23.4 14.4996 22.3 15.5996 21 15.5996ZM21 12.5996C20.7 12.5996 20.4 12.8996 20.4 13.1996C20.4 13.4996 20.7 13.7996 21 13.7996C21.3 13.7996 21.6 13.4996 21.6 13.1996C21.6 12.8996 21.3 12.5996 21 12.5996Z" fill="#6B5CFF"/>
    <path d="M33.3 15.5996C32 15.5996 30.9 14.4996 30.9 13.1996C30.9 11.8996 32 10.7996 33.3 10.7996C34.6 10.7996 35.7 11.8996 35.7 13.1996C35.7 14.4996 34.6 15.5996 33.3 15.5996ZM33.3 12.5996C33 12.5996 32.7 12.8996 32.7 13.1996C32.7 13.4996 33 13.7996 33.3 13.7996C33.6 13.7996 33.9 13.4996 33.9 13.1996C33.9 12.8996 33.6 12.5996 33.3 12.5996Z" fill="#6B5CFF"/>
    <path d="M39 26.3996H15.3C13.5 26.3996 12 24.8996 12 23.0996V7.49961C12 5.69961 13.5 4.19961 15.3 4.19961H39C40.8 4.19961 42.3 5.69961 42.3 7.49961V23.0996C42.3 24.8996 40.8 26.3996 39 26.3996ZM15.3 5.99961C14.5 5.99961 13.8 6.69961 13.8 7.49961V23.0996C13.8 23.8996 14.5 24.5996 15.3 24.5996H39C39.8 24.5996 40.5 23.8996 40.5 23.0996V7.49961C40.5 6.69961 39.8 5.99961 39 5.99961H15.3Z" fill="#6B5CFF"/>
    <path d="M31.1994 37.6004C30.9994 37.6004 30.7994 37.5004 30.6994 37.3004C30.4994 37.0004 30.4994 36.5004 30.7994 36.3004L34.4994 32.6004C34.7994 32.3004 35.2994 32.3004 35.4994 32.6004C35.6994 32.9004 35.7994 33.4004 35.4994 33.6004L31.7994 37.3004C31.5994 37.5004 31.3994 37.6004 31.1994 37.6004Z" fill="#6B5CFF"/>
    <path d="M22.8006 37.6004C22.6006 37.6004 22.4006 37.5004 22.3006 37.3004L18.6006 33.6004C18.3006 33.3004 18.3006 32.8004 18.6006 32.6004C18.9006 32.3004 19.4006 32.3004 19.6006 32.6004L23.3006 36.3004C23.6006 36.6004 23.6006 37.1004 23.3006 37.3004C23.2006 37.5004 23.0006 37.6004 22.8006 37.6004Z" fill="#6B5CFF"/>
    <path d="M27 40C26.6 40 26.2 39.7 26.2 39.2V32.3C26.2 31.9 26.5 31.5 27 31.5C27.5 31.5 27.8 31.8 27.8 32.3V39.2C27.8 39.7 27.4 40 27 40Z" fill="#6B5CFF"/>
    <path d="M29.8994 19.7004H24.2994C23.6994 19.7004 23.0994 19.5004 22.5994 19.1004L19.0994 16.6004C18.5994 16.2004 18.3994 15.6004 18.4994 15.0004C18.5994 14.4004 18.9994 13.9004 19.5994 13.7004L20.4994 13.4004V8.70039C20.4994 7.80039 21.1994 7.10039 22.0994 7.10039H32.0994C32.9994 7.10039 33.6994 7.80039 33.6994 8.70039V13.4004L34.5994 13.7004C35.1994 13.9004 35.5994 14.4004 35.6994 15.0004C35.7994 15.6004 35.5994 16.2004 35.0994 16.6004L31.5994 19.1004C31.0994 19.5004 30.4994 19.7004 29.8994 19.7004ZM22.0994 8.90039V14.4004L20.3994 15.0004L24.2994 17.9004H29.8994L33.7994 15.0004L32.0994 14.4004V8.90039H22.0994Z" fill="#6B5CFF"/>
    <path d="M35 28.8008H19.2C18.5 28.8008 18 28.3008 18 27.6008C18 26.9008 18.5 26.4008 19.2 26.4008H35C35.7 26.4008 36.2 26.9008 36.2 27.6008C36.2 28.3008 35.6 28.8008 35 28.8008Z" fill="#6B5CFF"/>
  </g>
  <text x="75" y="35" font-family="Fredoka One, cursive" font-size="18" fill="#6B5CFF">GameCraft Kids</text>
</svg>
